<svg width="214" height="67" viewBox="0 0 214 67" fill="none" xmlns="http://www.w3.org/2000/svg">
<path fill-rule="evenodd" clip-rule="evenodd" d="M214 50.7473C214 51.7863 213.137 52.6461 212.095 52.6461H208.32C207.278 52.6461 206.415 51.7863 206.415 50.7473V33.801C206.415 27.5671 201.347 22.5154 195.092 22.5154C188.837 22.5154 183.768 27.5671 183.768 33.801V50.7473C183.768 51.7863 182.906 52.6461 181.863 52.6461H178.089C177.046 52.6461 176.183 51.7863 176.183 50.7473V33.801C176.183 23.4111 184.631 14.9917 195.056 14.9917C205.48 14.9917 213.928 23.4111 213.928 33.801V50.7473H214Z" fill="white"/>
<path fill-rule="evenodd" clip-rule="evenodd" d="M114.282 22.5146C108.027 22.5146 102.958 27.5663 102.958 33.8002C102.958 40.0341 108.027 45.0858 114.282 45.0858H123.736C124.778 45.0858 125.641 45.9456 125.641 46.9846V50.7465C125.641 51.7855 124.778 52.6453 123.736 52.6453H114.282C103.857 52.6453 95.4093 44.2259 95.4093 33.836C95.4093 23.4461 103.857 15.0267 114.282 15.0267H123.736C124.778 15.0267 125.641 15.8866 125.641 16.9256V20.6874C125.641 21.7264 124.778 22.5863 123.736 22.5863H114.282V22.5146Z" fill="white"/>
<path fill-rule="evenodd" clip-rule="evenodd" d="M87.8602 16.8905C87.8602 15.8516 86.9974 14.9917 85.955 14.9917H82.1805C81.138 14.9917 80.2753 15.8516 80.2753 16.8905V50.7473C80.2753 51.7863 81.138 52.6461 82.1805 52.6461H85.955C86.9974 52.6461 87.8602 51.7863 87.8602 50.7473V16.8905Z" fill="white"/>
<path d="M149.798 14.8125C139.229 14.8125 130.638 23.3752 130.638 33.9084C130.638 44.4416 139.229 53.0043 149.798 53.0043C160.366 53.0043 168.958 44.4416 168.958 33.9084C168.958 23.3752 160.366 14.8125 149.798 14.8125ZM151.02 45.8389C143.399 46.5913 137.036 40.2498 137.791 32.6545C138.367 27.0296 142.896 22.4795 148.54 21.9421C156.16 21.1898 162.523 27.5312 161.768 35.1265C161.229 40.7514 156.664 45.2657 151.02 45.8389Z" fill="white"/>
<g clip-path="url(#clip0_183_15)">
<path d="M5.42539 66.2666C8.40554 66.2666 10.8508 63.7836 10.8508 60.7574C10.8508 57.7312 8.40554 55.2481 5.42539 55.2481C2.44525 55.2481 0 57.7312 0 60.7574C0 63.7836 2.44525 66.2666 5.42539 66.2666Z" fill="#B8FBFF"/>
<path d="M60.0613 11.0184C63.0414 11.0184 65.4867 8.53536 65.4867 5.50914C65.4867 2.48293 63.0414 -0.00012207 60.0613 -0.00012207C57.0811 -0.00012207 54.6359 2.48293 54.6359 5.50914C54.5595 8.53536 57.0047 11.0184 60.0613 11.0184Z" fill="#B8FBFF"/>
<path d="M17.0404 42.9887C17.2696 42.7559 17.346 42.3679 17.1932 42.0575C15.5885 39.0313 14.9008 35.4619 15.2064 31.7374C16.047 23.2019 22.8478 16.3735 31.2534 15.5199C34.9212 15.132 38.3599 15.9079 41.4164 17.4598C41.7221 17.615 42.1041 17.5374 42.3334 17.3046L48.0644 11.485C48.3701 11.1746 48.3701 10.5538 47.9116 10.321C43.556 7.60521 38.5127 5.97571 33.0873 5.97571C17.9573 5.97571 5.8075 18.3134 5.8075 33.5996C5.8075 39.1089 7.41219 44.3078 10.2395 48.6531C10.4687 49.0411 11.0801 49.1187 11.3857 48.7307L17.0404 42.9887Z" fill="#B8FBFF"/>
<path d="M48.5993 23.2798C48.3701 23.5126 48.2936 23.9005 48.5229 24.2109C50.4332 27.4699 51.4266 31.2721 50.9681 35.4622C50.1276 43.9977 43.3267 50.8261 34.9212 51.6796C30.8713 52.0676 27.0506 51.1365 23.8412 49.1966C23.5355 49.0414 23.1534 49.0414 22.9242 49.2742L17.346 54.9387C17.0403 55.249 17.0403 55.8698 17.4224 56.1026C21.8544 59.284 27.2798 61.0687 33.0873 61.0687C48.1408 61.2239 60.3671 48.8086 60.3671 33.5999C60.3671 27.7027 58.5331 22.1934 55.4001 17.6929C55.0945 17.3049 54.5596 17.3049 54.2539 17.6153L48.5993 23.2798Z" fill="#B8FBFF"/>
</g>
<defs>
<clipPath id="clip0_183_15">
<rect width="65.4868" height="66.2664" fill="white"/>
</clipPath>
</defs>
</svg>
