<svg width="72" height="72" viewBox="0 0 72 72" fill="none" xmlns="http://www.w3.org/2000/svg">
<path d="M19.3846 46.3202C19.6326 46.0713 19.7152 45.6566 19.5499 45.3247C17.814 42.0895 17.07 38.2736 17.4006 34.2918C18.3099 25.1668 25.667 17.8669 34.7601 16.9544C38.7279 16.5396 42.4478 17.3691 45.7544 19.0282C46.085 19.1941 46.4984 19.1112 46.7463 18.8623L52.9461 12.6407C53.2768 12.3089 53.2768 11.6453 52.7808 11.3964C48.069 8.49302 42.6131 6.75098 36.744 6.75098C20.3765 6.75098 7.23297 19.9407 7.23297 36.2827C7.23297 42.1725 8.96891 47.7304 12.0275 52.3759C12.2755 52.7906 12.9368 52.8736 13.2674 52.4588L19.3846 46.3202Z" fill="url(#paint0_linear_35_138)"/>
<path d="M53.5248 25.2498C53.2768 25.4987 53.1942 25.9134 53.4422 26.2453C55.5088 29.7293 56.5834 33.7941 56.0874 38.2736C55.1781 47.3986 47.821 54.6986 38.728 55.6111C34.3468 56.0259 30.2136 55.0304 26.7417 52.9566C26.411 52.7906 25.9977 52.7906 25.7497 53.0395L19.7153 59.0952C19.3846 59.427 19.3846 60.0906 19.7979 60.3395C24.5924 63.7406 30.4616 65.6486 36.744 65.6486C53.0288 65.8145 66.2551 52.5418 66.2551 36.2827C66.2551 29.9782 64.2711 24.0884 60.8819 19.2771C60.5513 18.8623 59.9726 18.8623 59.642 19.1941L53.5248 25.2498Z" fill="url(#paint1_linear_35_138)"/>
<path d="M6.8197 71.2065C10.0436 71.2065 12.6888 68.5519 12.6888 65.3167C12.6888 62.0815 10.0436 59.4269 6.8197 59.4269C3.59581 59.4269 0.950562 62.0815 0.950562 65.3167C0.950562 68.5519 3.59581 71.2065 6.8197 71.2065Z" fill="url(#paint2_linear_35_138)"/>
<path d="M65.9244 12.143C69.1483 12.143 71.7936 9.48844 71.7936 6.25322C71.7936 3.018 69.1483 0.363464 65.9244 0.363464C62.7005 0.363464 60.0553 3.018 60.0553 6.25322C59.9726 9.48844 62.6179 12.143 65.9244 12.143Z" fill="url(#paint3_linear_35_138)"/>
<defs>
<linearGradient id="paint0_linear_35_138" x1="7.20511" y1="29.7183" x2="53.0579" y2="29.7183" gradientUnits="userSpaceOnUse">
<stop stop-color="#19B7CB"/>
<stop offset="1" stop-color="#55C0D3"/>
</linearGradient>
<linearGradient id="paint1_linear_35_138" x1="19.4571" y1="42.3519" x2="66.2324" y2="42.3519" gradientUnits="userSpaceOnUse">
<stop stop-color="#19B7CB"/>
<stop offset="1" stop-color="#55C0D3"/>
</linearGradient>
<linearGradient id="paint2_linear_35_138" x1="4.17024" y1="67.9418" x2="70.7115" y2="3.4612" gradientUnits="userSpaceOnUse">
<stop stop-color="#19B7CB"/>
<stop offset="1" stop-color="#55C0D3"/>
</linearGradient>
<linearGradient id="paint3_linear_35_138" x1="3.45521" y1="67.2039" x2="69.9965" y2="2.72335" gradientUnits="userSpaceOnUse">
<stop stop-color="#19B7CB"/>
<stop offset="1" stop-color="#55C0D3"/>
</linearGradient>
</defs>
</svg>
