<svg width="214" height="68" viewBox="0 0 214 68" fill="none" xmlns="http://www.w3.org/2000/svg">
<path fill-rule="evenodd" clip-rule="evenodd" d="M213.846 51.5889C213.846 52.6264 212.984 53.485 211.943 53.485H208.174C207.133 53.485 206.272 52.6264 206.272 51.5889V34.6667C206.272 28.4417 201.21 23.3972 194.964 23.3972C188.718 23.3972 183.657 28.4417 183.657 34.6667V51.5889C183.657 52.6264 182.795 53.485 181.754 53.485H177.985C176.944 53.485 176.083 52.6264 176.083 51.5889V34.6667C176.083 24.2916 184.518 15.8842 194.928 15.8842C205.338 15.8842 213.774 24.2916 213.774 34.6667V51.5889H213.846Z" fill="white"/>
<path fill-rule="evenodd" clip-rule="evenodd" d="M114.27 23.3973C108.024 23.3973 102.962 28.4418 102.962 34.6669C102.962 40.8919 108.024 45.9364 114.27 45.9364H123.71C124.751 45.9364 125.613 46.795 125.613 47.8325V51.589C125.613 52.6265 124.751 53.4852 123.71 53.4852H114.27C103.86 53.4852 95.4241 45.0777 95.4241 34.7026C95.4241 24.3275 103.86 15.9201 114.27 15.9201H123.71C124.751 15.9201 125.613 16.7787 125.613 17.8162V21.5727C125.613 22.6103 124.751 23.4689 123.71 23.4689H114.27V23.3973Z" fill="white"/>
<path fill-rule="evenodd" clip-rule="evenodd" d="M87.8856 17.7804C87.8856 16.7428 87.0241 15.8842 85.9831 15.8842H82.214C81.173 15.8842 80.3115 16.7428 80.3115 17.7804V51.5889C80.3115 52.6264 81.173 53.485 82.214 53.485H85.9831C87.0241 53.485 87.8856 52.6264 87.8856 51.5889V17.7804Z" fill="white"/>
<path d="M149.735 15.7054C139.181 15.7054 130.602 24.2559 130.602 34.7741C130.602 45.2923 139.181 53.8429 149.735 53.8429C160.288 53.8429 168.868 45.2923 168.868 34.7741C168.868 24.2559 160.288 15.7054 149.735 15.7054ZM150.955 46.6876C143.345 47.4389 136.992 41.1065 137.746 33.5219C138.32 27.9051 142.843 23.3615 148.479 22.8249C156.089 22.0736 162.442 28.4059 161.688 35.9905C161.15 41.6074 156.591 46.1152 150.955 46.6876Z" fill="white"/>
<g clip-path="url(#clip0_38_220)">
<path d="M5.56818 67.086C8.54408 67.086 10.9858 64.6065 10.9858 61.5846C10.9858 58.5627 8.54408 56.0832 5.56818 56.0832C2.59228 56.0832 0.150513 58.5627 0.150513 61.5846C0.150513 64.6065 2.59228 67.086 5.56818 67.086Z" fill="url(#paint0_linear_38_220)"/>
<path d="M60.1264 11.9168C63.1023 11.9168 65.5441 9.43733 65.5441 6.41542C65.5441 3.39352 63.1023 0.914001 60.1264 0.914001C57.1505 0.914001 54.7088 3.39352 54.7088 6.41542C54.6325 9.43733 57.0742 11.9168 60.1264 11.9168Z" fill="url(#paint1_linear_38_220)"/>
<path d="M17.1666 43.8406C17.3955 43.6081 17.4718 43.2207 17.3192 42.9108C15.7168 39.8888 15.03 36.3245 15.3352 32.6053C16.1746 24.0819 22.9658 17.2633 31.3593 16.4109C35.022 16.0235 38.4557 16.7984 41.5079 18.3481C41.8131 18.503 42.1947 18.4255 42.4236 18.1931L48.1465 12.3817C48.4517 12.0718 48.4517 11.4519 47.9939 11.2195C43.6445 8.50749 38.6083 6.88031 33.1907 6.88031C18.0822 6.88031 5.94971 19.2004 5.94971 34.4649C5.94971 39.9663 7.55212 45.1578 10.3754 49.497C10.6043 49.8844 11.2148 49.9619 11.52 49.5744L17.1666 43.8406Z" fill="url(#paint2_linear_38_220)"/>
<path d="M48.6806 24.1594C48.4517 24.3919 48.3754 24.7793 48.6043 25.0893C50.512 28.3436 51.5039 32.1404 51.0461 36.3246C50.2067 44.8479 43.4156 51.6666 35.022 52.5189C30.9778 52.9063 27.1626 51.9765 23.9578 50.0394C23.6525 49.8844 23.271 49.8844 23.0421 50.1169L17.4718 55.7733C17.1666 56.0832 17.1666 56.7031 17.5481 56.9355C21.9738 60.1124 27.3915 61.8946 33.1907 61.8946C48.2228 62.0495 60.4316 49.652 60.4316 34.4649C60.4316 28.5761 58.6003 23.0747 55.4718 18.5805C55.1666 18.1931 54.6325 18.1931 54.3272 18.5031L48.6806 24.1594Z" fill="url(#paint3_linear_38_220)"/>
</g>
<defs>
<linearGradient id="paint0_linear_38_220" x1="3.12252" y1="64.0366" x2="65.249" y2="4.54238" gradientUnits="userSpaceOnUse">
<stop stop-color="#19B7CB"/>
<stop offset="1" stop-color="#55C0D3"/>
</linearGradient>
<linearGradient id="paint1_linear_38_220" x1="2.46254" y1="63.3474" x2="64.589" y2="3.85317" gradientUnits="userSpaceOnUse">
<stop stop-color="#19B7CB"/>
<stop offset="1" stop-color="#55C0D3"/>
</linearGradient>
<linearGradient id="paint2_linear_38_220" x1="5.92399" y1="28.3333" x2="48.2496" y2="28.3333" gradientUnits="userSpaceOnUse">
<stop stop-color="#19B7CB"/>
<stop offset="1" stop-color="#55C0D3"/>
</linearGradient>
<linearGradient id="paint3_linear_38_220" x1="17.2335" y1="40.134" x2="60.4107" y2="40.134" gradientUnits="userSpaceOnUse">
<stop stop-color="#19B7CB"/>
<stop offset="1" stop-color="#55C0D3"/>
</linearGradient>
<clipPath id="clip0_38_220">
<rect width="65.3935" height="66.172" fill="white" transform="translate(0.150513 0.914001)"/>
</clipPath>
</defs>
</svg>
