<svg width="215" height="68" viewBox="0 0 215 68" fill="none" xmlns="http://www.w3.org/2000/svg">
<path fill-rule="evenodd" clip-rule="evenodd" d="M214.431 51.5889C214.431 52.6264 213.569 53.485 212.528 53.485H208.759C207.718 53.485 206.857 52.6264 206.857 51.5889V34.6667C206.857 28.4417 201.795 23.3972 195.549 23.3972C189.303 23.3972 184.242 28.4417 184.242 34.6667V51.5889C184.242 52.6264 183.38 53.485 182.339 53.485H178.57C177.529 53.485 176.668 52.6264 176.668 51.5889V34.6667C176.668 24.2916 185.103 15.8842 195.513 15.8842C205.923 15.8842 214.359 24.2916 214.359 34.6667V51.5889H214.431Z" fill="#5A6B80"/>
<path fill-rule="evenodd" clip-rule="evenodd" d="M114.854 23.3973C108.609 23.3973 103.547 28.4418 103.547 34.6669C103.547 40.8919 108.609 45.9364 114.854 45.9364H124.295C125.336 45.9364 126.198 46.795 126.198 47.8325V51.589C126.198 52.6265 125.336 53.4852 124.295 53.4852H114.854C104.445 53.4852 96.009 45.0777 96.009 34.7026C96.009 24.3275 104.445 15.9201 114.854 15.9201H124.295C125.336 15.9201 126.198 16.7787 126.198 17.8162V21.5727C126.198 22.6103 125.336 23.4689 124.295 23.4689H114.854V23.3973Z" fill="#5A6B80"/>
<path fill-rule="evenodd" clip-rule="evenodd" d="M88.4706 17.7804C88.4706 16.7428 87.6091 15.8842 86.5681 15.8842H82.799C81.758 15.8842 80.8965 16.7428 80.8965 17.7804V51.5889C80.8965 52.6264 81.758 53.485 82.799 53.485H86.5681C87.6091 53.485 88.4706 52.6264 88.4706 51.5889V17.7804Z" fill="#5A6B80"/>
<path d="M150.32 15.7054C139.766 15.7054 131.187 24.2559 131.187 34.7741C131.187 45.2923 139.766 53.8429 150.32 53.8429C160.873 53.8429 169.453 45.2923 169.453 34.7741C169.453 24.2559 160.873 15.7054 150.32 15.7054ZM151.54 46.6876C143.93 47.4389 137.577 41.1065 138.331 33.5219C138.905 27.9051 143.428 23.3615 149.064 22.8249C156.674 22.0736 163.027 28.4059 162.273 35.9905C161.735 41.6074 157.176 46.1152 151.54 46.6876Z" fill="#5A6B80"/>
<g clip-path="url(#clip0_1_2)">
<path d="M6.15316 67.086C9.12906 67.086 11.5708 64.6065 11.5708 61.5846C11.5708 58.5627 9.12906 56.0832 6.15316 56.0832C3.17725 56.0832 0.735489 58.5627 0.735489 61.5846C0.735489 64.6065 3.17725 67.086 6.15316 67.086Z" fill="url(#paint0_linear_1_2)"/>
<path d="M60.7114 11.9168C63.6873 11.9168 66.1291 9.43733 66.1291 6.41542C66.1291 3.39352 63.6873 0.914001 60.7114 0.914001C57.7355 0.914001 55.2937 3.39352 55.2937 6.41542C55.2174 9.43733 57.6592 11.9168 60.7114 11.9168Z" fill="url(#paint1_linear_1_2)"/>
<path d="M17.7515 43.8406C17.9805 43.6081 18.0568 43.2207 17.9042 42.9108C16.3017 39.8888 15.615 36.3245 15.9202 32.6053C16.7596 24.0819 23.5507 17.2633 31.9443 16.4109C35.607 16.0235 39.0407 16.7984 42.0929 18.3481C42.3981 18.503 42.7797 18.4255 43.0086 18.1931L48.7315 12.3817C49.0367 12.0718 49.0367 11.4519 48.5788 11.2195C44.2295 8.50749 39.1933 6.88031 33.7756 6.88031C18.6672 6.88031 6.53468 19.2004 6.53468 34.4649C6.53468 39.9663 8.13709 45.1578 10.9604 49.497C11.1893 49.8844 11.7997 49.9619 12.105 49.5744L17.7515 43.8406Z" fill="url(#paint2_linear_1_2)"/>
<path d="M49.2656 24.1594C49.0367 24.3919 48.9604 24.7793 49.1893 25.0893C51.0969 28.3436 52.0889 32.1404 51.631 36.3246C50.7917 44.8479 44.0005 51.6666 35.607 52.5189C31.5628 52.9063 27.7475 51.9765 24.5427 50.0394C24.2375 49.8844 23.856 49.8844 23.627 50.1169L18.0568 55.7733C17.7515 56.0832 17.7515 56.7031 18.1331 56.9355C22.5588 60.1124 27.9764 61.8946 33.7756 61.8946C48.8078 62.0495 61.0166 49.652 61.0166 34.4649C61.0166 28.5761 59.1853 23.0747 56.0568 18.5805C55.7515 18.1931 55.2174 18.1931 54.9122 18.5031L49.2656 24.1594Z" fill="url(#paint3_linear_1_2)"/>
</g>
<defs>
<linearGradient id="paint0_linear_1_2" x1="3.7075" y1="64.0366" x2="65.834" y2="4.54238" gradientUnits="userSpaceOnUse">
<stop stop-color="#19B7CB"/>
<stop offset="1" stop-color="#55C0D3"/>
</linearGradient>
<linearGradient id="paint1_linear_1_2" x1="3.04749" y1="63.3474" x2="65.174" y2="3.85317" gradientUnits="userSpaceOnUse">
<stop stop-color="#19B7CB"/>
<stop offset="1" stop-color="#55C0D3"/>
</linearGradient>
<linearGradient id="paint2_linear_1_2" x1="6.50897" y1="28.3333" x2="48.8346" y2="28.3333" gradientUnits="userSpaceOnUse">
<stop stop-color="#19B7CB"/>
<stop offset="1" stop-color="#55C0D3"/>
</linearGradient>
<linearGradient id="paint3_linear_1_2" x1="17.8185" y1="40.134" x2="60.9957" y2="40.134" gradientUnits="userSpaceOnUse">
<stop stop-color="#19B7CB"/>
<stop offset="1" stop-color="#55C0D3"/>
</linearGradient>
<clipPath id="clip0_1_2">
<rect width="65.3935" height="66.172" fill="white" transform="translate(0.735489 0.914001)"/>
</clipPath>
</defs>
</svg>
