<svg width="201" height="201" viewBox="0 0 201 201" fill="none" xmlns="http://www.w3.org/2000/svg">
<circle cx="100.389" cy="100.389" r="99.6473" fill="#41B1BD"/>
<g clip-path="url(#clip0_39_232)">
<path d="M47.1946 165.004C53.0401 165.004 57.8364 160.191 57.8364 154.325C57.8364 148.459 53.0401 143.646 47.1946 143.646C41.3491 143.646 36.5527 148.459 36.5527 154.325C36.5527 160.191 41.3491 165.004 47.1946 165.004Z" fill="white"/>
<path d="M154.362 57.9111C160.208 57.9111 165.004 53.098 165.004 47.2319C165.004 41.3658 160.208 36.5527 154.362 36.5527C148.517 36.5527 143.721 41.3658 143.721 47.2319C143.571 53.098 148.367 57.9111 154.362 57.9111Z" fill="white"/>
<path d="M69.9771 119.881C70.4267 119.43 70.5766 118.677 70.2769 118.076C67.1293 112.21 65.7803 105.291 66.3798 98.0711C68.0286 81.5258 81.3684 68.2896 97.8557 66.635C105.05 65.883 111.795 67.3871 117.79 70.3953C118.39 70.6962 119.139 70.5457 119.589 70.0945L130.83 58.8136C131.43 58.212 131.43 57.0087 130.531 56.5575C121.987 51.293 112.095 48.1344 101.453 48.1344C71.7757 48.1344 47.944 72.0499 47.944 101.681C47.944 112.36 51.0916 122.438 56.6373 130.861C57.087 131.613 58.286 131.763 58.8856 131.011L69.9771 119.881Z" fill="white"/>
<path d="M131.88 81.6762C131.43 82.1274 131.28 82.8795 131.73 83.4811C135.477 89.7984 137.425 97.1686 136.526 105.291C134.877 121.836 121.538 135.072 105.05 136.727C97.1063 137.479 89.6121 135.674 83.3169 131.914C82.7174 131.613 81.9679 131.613 81.5183 132.064L70.5767 143.044C69.9771 143.646 69.9771 144.849 70.7265 145.3C79.4199 151.467 90.0617 154.927 101.453 154.927C130.98 155.228 154.962 131.162 154.962 101.681C154.962 90.2497 151.365 79.5704 145.219 70.8466C144.62 70.0945 143.571 70.0945 142.971 70.6962L131.88 81.6762Z" fill="white"/>
</g>
<defs>
<clipPath id="clip0_39_232">
<rect width="128.452" height="128.452" fill="white" transform="translate(36.5527 36.5527)"/>
</clipPath>
</defs>
</svg>
